<svg xmlns="http://www.w3.org/2000/svg" width="1024" height="1024" viewBox="0 0 1024 1024" version="1.1"><path d="M 862.396 582.362 C 860.139 583.099, 856.279 585.088, 853.819 586.781 C 851.358 588.473, 848.208 591.353, 846.817 593.179 C 845.426 595.006, 843.255 598.525, 841.992 601 C 840.729 603.475, 839.056 607.750, 838.275 610.500 C 837.495 613.250, 836.605 622.051, 836.298 630.057 C 835.862 641.454, 836.106 646.447, 837.425 653.057 C 838.351 657.701, 840.362 664.200, 841.895 667.500 C 843.427 670.800, 845.887 674.927, 847.362 676.670 C 848.837 678.414, 852.144 681.232, 854.713 682.933 C 857.281 684.634, 861.155 686.503, 863.323 687.087 C 865.491 687.671, 870.641 688.131, 874.769 688.109 C 878.925 688.087, 884.464 687.342, 887.183 686.439 C 890.290 685.407, 894.205 682.853, 897.846 679.482 C 901.250 676.331, 904.702 671.904, 906.299 668.642 C 907.784 665.609, 909.766 660.061, 910.703 656.314 C 911.958 651.290, 912.391 645.428, 912.348 634 C 912.305 622.670, 911.828 616.773, 910.573 612.080 C 909.629 608.549, 907.581 603.132, 906.022 600.043 C 904.462 596.954, 901.086 592.491, 898.519 590.124 C 895.952 587.758, 891.747 584.877, 889.176 583.722 C 885.807 582.210, 881.985 581.539, 875.500 581.322 C 869.880 581.134, 864.959 581.525, 862.396 582.362 M 475.667 582.667 C 475.300 583.033, 475 606.658, 475 635.167 L 475 687 485.500 687 L 496 687 496 666.500 L 496 646 509.500 646 L 523 646 523 636.500 L 523 627 509.500 627 L 496 627 496 614.071 L 496 601.142 510.750 601.149 L 525.500 601.156 525.786 591.578 L 526.072 582 501.203 582 C 487.525 582, 476.033 582.300, 475.667 582.667 M 538.209 624.250 C 538.500 666.500, 538.500 666.500, 541.112 672.070 C 542.757 675.576, 545.351 678.946, 548.112 681.163 C 550.526 683.100, 554.525 685.483, 557 686.458 C 560.124 687.689, 564.287 688.238, 570.612 688.252 C 578.222 688.269, 580.613 687.864, 585.112 685.795 C 588.076 684.432, 592.195 681.564, 594.268 679.420 C 596.340 677.276, 599.028 673.042, 600.242 670.011 C 602.371 664.695, 602.462 663.038, 602.794 623.250 L 603.138 582 592.602 582 L 582.065 582 581.783 622.478 C 581.500 662.956, 581.500 662.956, 578.903 665.553 C 577.281 667.174, 574.753 668.358, 572.171 668.704 C 569.799 669.022, 566.732 668.717, 564.972 667.988 C 563.285 667.290, 561.139 665.319, 560.203 663.609 C 558.697 660.860, 558.464 655.954, 558.187 621.250 L 557.874 582 547.896 582 L 537.918 582 538.209 624.250 M 611.851 587.235 C 611.769 590.131, 611.656 594.525, 611.601 597 L 611.500 601.500 621.750 601.785 L 632 602.070 632 644.535 L 632 687 642.500 687 L 653 687 653 644.538 L 653 602.075 662.250 601.788 L 671.500 601.500 671.500 592 L 671.500 582.500 641.750 582.235 L 612 581.970 611.851 587.235 M 682 622.318 C 682 655.127, 682.278 663.572, 683.490 667.655 C 684.310 670.415, 686.316 674.516, 687.948 676.769 C 689.580 679.023, 692.922 682.042, 695.374 683.479 C 697.825 684.916, 701.332 686.532, 703.166 687.070 C 705 687.609, 710.709 688.058, 715.854 688.070 C 724.110 688.088, 725.937 687.750, 731.405 685.191 C 735.297 683.370, 738.747 680.844, 740.684 678.396 C 742.380 676.253, 744.602 672.700, 745.622 670.500 C 747.317 666.841, 747.502 662.891, 747.788 624.214 L 748.101 581.929 737.800 582.214 L 727.500 582.500 727 622.728 C 726.500 662.957, 726.500 662.957, 723.868 665.588 C 722.054 667.401, 719.804 668.380, 716.634 668.738 C 714.104 669.023, 710.776 668.736, 709.239 668.099 C 707.702 667.462, 705.782 665.942, 704.972 664.721 C 703.750 662.877, 703.450 655.664, 703.207 622.250 L 702.915 582 692.457 582 L 682 582 682 622.318 M 764 634.415 L 764 687.070 774.250 686.785 L 784.500 686.500 784.552 668.500 C 784.604 650.500, 784.604 650.500, 787.053 650.208 C 788.400 650.047, 790.228 650.497, 791.115 651.208 C 792.003 651.918, 795.772 660.263, 799.492 669.750 L 806.256 687 817.590 687 L 828.924 687 825.377 678.750 C 823.426 674.212, 819.618 665.260, 816.915 658.855 C 814.212 652.450, 812 646.963, 812 646.661 C 812 646.360, 814.463 643.784, 817.473 640.937 C 821.278 637.339, 823.550 634.147, 824.927 630.465 C 826.017 627.552, 827.209 622.903, 827.577 620.133 C 827.953 617.297, 827.716 612.295, 827.035 608.683 C 826.369 605.155, 824.521 599.987, 822.928 597.197 C 821.335 594.408, 818.496 590.955, 816.620 589.524 C 814.744 588.093, 810.575 585.968, 807.355 584.801 C 802.410 583.009, 798.586 582.608, 782.750 582.219 L 764 581.759 764 634.415 M 784.750 601.561 C 784.337 601.986, 784 609.291, 784 617.796 L 784 633.258 790.250 632.557 C 793.688 632.171, 797.585 631.326, 798.910 630.678 C 800.236 630.030, 802.226 628.276, 803.333 626.780 C 804.865 624.709, 805.364 622.422, 805.423 617.193 C 805.471 612.941, 804.942 609.279, 804.035 607.577 C 803.230 606.066, 801.244 604.143, 799.623 603.305 C 798.002 602.467, 794.161 601.558, 791.088 601.285 C 788.015 601.013, 785.163 601.137, 784.750 601.561 M 866.841 602.524 C 865.379 603.318, 863.225 605.518, 862.054 607.412 C 860.883 609.307, 859.275 613.926, 858.480 617.678 C 857.685 621.430, 857.035 629.225, 857.035 635 C 857.035 640.775, 857.695 648.615, 858.501 652.423 C 859.308 656.231, 861.133 661.027, 862.557 663.082 C 863.981 665.137, 866.470 667.366, 868.089 668.037 C 869.713 668.710, 873.037 669.031, 875.502 668.753 C 877.960 668.476, 881.145 667.480, 882.580 666.540 C 884.014 665.600, 886.297 662.410, 887.651 659.451 C 889.247 655.966, 890.459 650.800, 891.092 644.786 C 891.630 639.678, 891.805 632.575, 891.481 629 C 891.157 625.425, 890.416 620.250, 889.834 617.500 C 889.252 614.750, 887.658 610.547, 886.293 608.159 C 884.706 605.386, 882.591 603.309, 880.437 602.409 C 878.582 601.634, 875.362 601.018, 873.282 601.040 C 871.202 601.062, 868.304 601.730, 866.841 602.524" stroke="none" fill="#fb9b23" fill-rule="evenodd"/><path d="M 269.500 294.678 C 264.433 296.900, 261.867 297.342, 253 297.518 C 247.225 297.632, 238.582 298.173, 233.794 298.719 C 228.553 299.317, 223.990 300.432, 222.327 301.521 C 220.809 302.516, 217.209 305.251, 214.328 307.597 C 210.348 310.839, 207.937 312.008, 204.295 312.464 C 201.658 312.793, 196.838 313.747, 193.583 314.582 C 190.329 315.417, 186.416 316.991, 184.888 318.080 C 183.360 319.168, 180.493 322.719, 178.517 325.972 C 176.541 329.224, 173.606 332.996, 171.993 334.352 C 170.381 335.709, 166.846 337.555, 164.138 338.454 C 161.430 339.353, 157.641 341.618, 155.717 343.486 C 153.538 345.603, 151.187 349.586, 149.479 354.054 C 147.165 360.112, 146.033 361.712, 142.192 364.363 C 139.692 366.088, 136.083 368.843, 134.174 370.484 C 132.264 372.126, 130.016 375.051, 129.177 376.984 C 128.338 378.918, 127.370 385, 127.026 390.500 C 126.424 400.134, 126.229 400.792, 121.704 408.473 C 119.121 412.858, 116.740 417.869, 116.414 419.607 C 116.088 421.346, 116.554 426.362, 117.450 430.756 C 119.073 438.711, 119.069 438.770, 116.612 445.299 C 115.255 448.905, 113.860 453.800, 113.511 456.177 C 113.109 458.927, 113.400 461.961, 114.312 464.514 C 115.100 466.722, 117.173 470.772, 118.919 473.514 C 122.040 478.417, 122.082 478.644, 121.428 487.124 C 120.969 493.061, 121.158 496.947, 122.032 499.598 C 122.840 502.046, 125.795 505.886, 130.151 510.148 C 136.906 516.757, 137 516.922, 137.024 522.174 C 137.038 525.104, 137.511 529.525, 138.076 532 C 138.640 534.475, 140.268 538.191, 141.692 540.257 C 143.129 542.342, 146.779 545.415, 149.891 547.159 C 152.976 548.889, 156.498 551.200, 157.717 552.296 C 158.937 553.391, 160.674 556.514, 161.578 559.235 C 162.482 561.956, 164.591 565.743, 166.266 567.650 C 167.941 569.557, 170.939 571.948, 172.929 572.964 C 174.919 573.979, 178.786 575.143, 181.523 575.552 C 184.261 575.960, 187.540 576.973, 188.812 577.802 C 190.084 578.632, 192.177 581.379, 193.463 583.906 C 194.749 586.433, 196.859 589.483, 198.151 590.683 C 199.443 591.884, 201.767 593.347, 203.315 593.933 C 204.863 594.520, 209.447 595, 213.500 595 C 217.553 595, 222.055 595.451, 223.503 596.001 C 224.952 596.552, 227.568 598.517, 229.318 600.368 C 231.068 602.219, 235.875 605.421, 240 607.484 C 244.125 609.547, 247.605 611.324, 247.733 611.434 C 247.861 611.543, 246.626 615.114, 244.988 619.369 C 243.349 623.624, 239.263 632.594, 235.906 639.302 C 232.550 646.011, 228.205 654.200, 226.251 657.500 C 224.298 660.800, 219.842 668.036, 216.350 673.580 C 212.857 679.124, 210 683.961, 210 684.330 C 210 684.698, 213.501 685, 217.780 685 C 222.059 685, 231.075 685.683, 237.815 686.517 C 244.556 687.352, 253.992 688.946, 258.785 690.059 C 263.578 691.173, 272 693.462, 277.500 695.147 C 283 696.832, 292.557 700.180, 298.739 702.588 C 304.920 704.996, 313.573 708.774, 317.967 710.983 C 322.361 713.192, 326.866 715, 327.978 715 C 329.090 715, 330 714.784, 330 714.520 C 330 714.256, 329.342 712.344, 328.537 710.270 C 327.733 708.197, 326.169 702.970, 325.062 698.656 C 323.955 694.342, 322.532 686.927, 321.900 682.178 C 321.268 677.429, 320.987 669.483, 321.275 664.521 C 321.563 659.560, 322.577 653.170, 323.528 650.322 C 324.479 647.473, 326.568 643.553, 328.171 641.609 C 330.110 639.256, 332.278 637.851, 334.657 637.404 C 337.045 636.957, 342.591 637.672, 351.366 639.560 C 359.748 641.363, 367.575 642.400, 373 642.425 C 379.843 642.457, 382.377 642.029, 386 640.230 C 388.475 639.001, 391.607 636.367, 392.960 634.378 C 394.972 631.422, 395.520 629.118, 395.965 621.750 C 396.457 613.590, 396.740 612.586, 398.963 611.119 C 400.313 610.229, 402.673 608.447, 404.209 607.161 C 406.157 605.529, 407 603.889, 407 601.732 C 407 600.033, 406.496 597.247, 405.879 595.543 C 404.893 592.815, 405.073 591.982, 407.379 588.583 C 408.821 586.459, 410 583.726, 410 582.511 C 410 581.295, 408.658 578.321, 407.018 575.900 C 405.378 573.480, 404.028 570.518, 404.018 569.317 C 404.007 567.925, 405.654 565.779, 408.564 563.394 C 411.073 561.338, 413.806 558.342, 414.636 556.737 C 415.653 554.770, 415.933 552.562, 415.494 549.966 C 415.136 547.848, 413.079 543.188, 410.922 539.612 C 408.765 536.036, 407 532.548, 407 531.861 C 407 531.174, 410.804 524.962, 415.454 518.056 C 420.103 511.150, 424.682 503.700, 425.629 501.500 C 426.833 498.704, 427.412 494.340, 427.555 487 C 427.753 476.800, 427.876 476.277, 431.879 468.696 C 435.090 462.615, 436 459.807, 436 455.975 C 436 452.834, 435.063 448.969, 433.406 445.279 C 431.031 439.987, 430.880 438.868, 431.611 432 C 432.050 427.875, 432.368 421.926, 432.317 418.780 C 432.248 414.492, 431.573 411.988, 429.621 408.780 C 428.189 406.426, 425.573 402.574, 423.808 400.220 C 420.855 396.281, 420.553 395.164, 420.011 386.180 C 419.544 378.445, 418.948 375.651, 417.137 372.721 C 415.880 370.688, 412.242 367.193, 409.052 364.956 C 405.257 362.293, 402.699 359.611, 401.648 357.194 C 400.766 355.162, 399.117 350.954, 397.985 347.843 C 396.584 343.994, 394.525 340.895, 391.540 338.144 C 388.587 335.421, 385.254 333.548, 381.339 332.410 C 378.141 331.480, 374.713 330.220, 373.722 329.610 C 372.731 328.999, 370.791 326.201, 369.411 323.391 C 368.032 320.580, 365.687 317.148, 364.201 315.763 C 362.716 314.378, 360.375 312.655, 359 311.934 C 357.625 311.213, 352.413 310.347, 347.418 310.010 C 338.511 309.409, 338.222 309.308, 332.418 304.787 C 329.163 302.252, 324.758 299.463, 322.628 298.589 C 320.498 297.715, 317.691 297, 316.389 297 C 315.087 297, 311.654 297.900, 308.761 298.999 C 305.867 300.099, 302.102 300.999, 300.394 300.999 C 298.382 301, 295.670 299.765, 292.699 297.496 C 290.175 295.569, 286.931 293.544, 285.490 292.996 C 284.049 292.448, 281.212 292.011, 279.185 292.024 C 277.158 292.037, 272.800 293.231, 269.500 294.678 M 276.500 337.155 C 275.400 337.756, 273.938 338.954, 273.250 339.815 C 272.563 340.677, 272 343.050, 272 345.088 C 272 348.070, 272.683 349.392, 275.500 351.866 L 279 354.939 279 379.087 C 279 403.236, 279 403.236, 276.127 406.508 C 273.254 409.780, 273.254 409.780, 273.240 428.488 L 273.225 447.195 268.863 451.680 C 266.463 454.146, 262.925 457.427, 261 458.969 L 257.500 461.774 257.809 426.873 C 258.118 391.973, 258.118 391.973, 260.559 389.532 C 261.902 388.189, 263 386.141, 263 384.980 C 263 383.819, 262.483 381.886, 261.850 380.684 C 261.218 379.483, 260.205 378.169, 259.600 377.765 C 258.995 377.361, 257.107 377.024, 255.405 377.015 C 253.660 377.007, 251.588 377.798, 250.655 378.829 C 249.745 379.835, 249 382.314, 249 384.339 C 249 386.782, 249.672 388.595, 251 389.732 C 252.833 391.302, 253 392.682, 253 406.306 C 253 414.479, 252.662 421.017, 252.250 420.833 C 251.838 420.650, 247.338 416.197, 242.250 410.938 L 233 401.376 233 388.928 C 233 377.630, 233.182 376.368, 234.969 375.252 C 236.051 374.576, 237.607 372.728, 238.425 371.145 C 239.572 368.927, 239.683 367.436, 238.910 364.636 C 238.222 362.145, 236.941 360.504, 234.832 359.413 C 232.847 358.387, 230.595 358.041, 228.479 358.438 C 226.676 358.776, 224.665 359.698, 224.011 360.487 C 223.356 361.276, 222.578 363.730, 222.281 365.940 C 221.907 368.734, 222.246 370.726, 223.394 372.479 C 224.303 373.866, 225.663 375, 226.416 375 C 227.170 375, 228.011 375.587, 228.287 376.305 C 228.562 377.022, 228.815 384.052, 228.848 391.927 L 228.909 406.245 235.621 413.373 C 239.312 417.293, 244.611 422.740, 247.395 425.478 L 252.457 430.457 252.501 448.393 C 252.544 466.330, 252.544 466.330, 249.772 470.156 C 247 473.983, 247 473.983, 247 516.651 L 247 559.319 252.500 565.085 C 257.923 570.771, 258 570.936, 258 576.890 C 258 580.212, 257.134 587.333, 256.076 592.715 C 255.018 598.097, 252.586 606.793, 250.671 612.040 C 248.755 617.286, 245.273 625.836, 242.933 631.040 C 240.593 636.243, 236.328 644.808, 233.455 650.073 C 230.583 655.338, 225.231 664.501, 221.563 670.436 C 217.894 676.371, 215.030 681.327, 215.196 681.451 C 215.363 681.574, 221.800 682.232, 229.500 682.913 C 237.200 683.593, 248.756 685.251, 255.179 686.597 C 261.603 687.943, 271.999 690.617, 278.283 692.539 C 284.567 694.461, 294.764 698.053, 300.943 700.521 C 307.122 702.989, 315.342 706.596, 319.209 708.536 C 324.822 711.354, 326.098 711.705, 325.542 710.282 C 325.158 709.302, 323.785 704.450, 322.489 699.500 C 321.194 694.550, 319.604 686.246, 318.956 681.046 C 318.266 675.516, 318.065 668.289, 318.472 663.633 C 318.853 659.255, 320.047 652.822, 321.123 649.337 C 322.430 645.106, 324.321 641.695, 326.813 639.076 C 328.866 636.918, 331.885 634.815, 333.523 634.404 C 335.498 633.907, 341.380 634.639, 351 636.577 C 360.007 638.393, 368.530 639.490, 373.500 639.473 C 379.754 639.452, 382.400 638.970, 385.624 637.267 C 388.628 635.680, 390.189 633.984, 391.374 631.024 C 392.296 628.719, 393 624.125, 393 620.414 C 393 616.814, 393.457 613.015, 394.015 611.972 C 394.573 610.929, 397.048 608.687, 399.515 606.990 C 403.147 604.491, 404 603.333, 404 600.902 C 404 599.251, 403.366 596.674, 402.590 595.175 C 401.279 592.640, 401.384 592.175, 404.090 588.546 C 405.691 586.400, 407 583.661, 407 582.459 C 407 581.258, 405.650 578.576, 404 576.500 C 402.122 574.137, 400.998 571.561, 400.996 569.612 C 400.992 567.090, 402.130 565.445, 406.996 560.935 C 411.382 556.870, 413 554.667, 413 552.758 C 413 551.322, 410.225 544.826, 406.834 538.323 C 403.442 531.820, 398.830 524.025, 396.584 521 C 392.500 515.500, 392.500 515.500, 391.930 498 C 391.547 486.239, 390.778 478.205, 389.585 473.500 C 388.609 469.650, 386.043 462.793, 383.883 458.263 C 381.269 452.781, 377.897 447.825, 373.802 443.447 C 370.418 439.830, 366.336 436.191, 364.732 435.361 C 363.127 434.531, 361.573 434.093, 361.279 434.388 C 360.984 434.683, 359.945 438.274, 358.969 442.369 C 357.994 446.464, 355.936 452.669, 354.397 456.157 C 352.858 459.646, 349.552 465.650, 347.051 469.500 C 344.549 473.350, 339.453 479.714, 335.727 483.642 C 332 487.570, 325.620 493.087, 321.550 495.901 C 317.479 498.715, 311.078 502.396, 307.324 504.082 C 303.571 505.768, 296.737 508.239, 292.138 509.574 C 287.539 510.908, 282.288 512, 280.470 512 C 278.651 512, 276.452 512.273, 275.582 512.607 C 274.208 513.134, 274 516.012, 274 534.498 C 274 555.782, 274 555.782, 270.486 560.641 C 268.554 563.313, 266.187 566.679, 265.227 568.119 C 263.481 570.738, 263.481 570.738, 257.490 563.619 L 251.500 556.500 251.196 517.090 L 250.892 477.681 282.472 446.044 C 312.778 415.683, 314.186 414.423, 317.394 414.798 C 319.236 415.013, 322.104 414.480, 323.785 413.611 C 325.728 412.606, 327.256 410.754, 327.999 408.502 C 328.996 405.482, 328.892 404.498, 327.283 401.734 C 326.128 399.748, 324.081 398.067, 321.981 397.379 C 319.642 396.612, 317.665 396.569, 315.727 397.245 C 314.169 397.788, 312.158 399.355, 311.259 400.727 C 310.361 402.099, 309.574 405.084, 309.512 407.360 C 309.403 411.321, 308.735 412.161, 294.101 426.750 C 285.687 435.137, 278.623 442, 278.402 442 C 278.181 442, 278 435.352, 278 427.226 L 278 412.453 296.607 393.726 C 312.349 377.884, 315.668 375, 318.157 375 C 319.775 375, 322.364 374.346, 323.909 373.547 C 325.454 372.748, 327.275 370.750, 327.956 369.106 C 328.919 366.780, 328.932 365.325, 328.014 362.541 C 327.283 360.326, 325.742 358.401, 323.966 357.483 C 322.389 356.667, 319.917 356, 318.473 356 C 316.879 356, 314.649 357.198, 312.800 359.046 C 310.049 361.797, 309.800 362.564, 310.223 366.964 C 310.691 371.836, 310.691 371.836, 297.345 385.154 L 284 398.472 284 376.813 C 284 355.154, 284 355.154, 287 352.154 C 289.239 349.915, 290 348.226, 290 345.500 C 290 342.795, 289.241 341.087, 287.077 338.923 C 285.196 337.042, 283.146 336.011, 281.327 336.030 C 279.772 336.047, 277.600 336.553, 276.500 337.155 M 475 423.473 L 475 487 486.988 487 L 498.977 487 499.238 448.631 L 499.500 410.261 509.633 437.881 L 519.767 465.500 526.891 465.794 C 533.873 466.082, 534.038 466.032, 535.117 463.294 C 535.722 461.757, 539.733 450.375, 544.029 438 C 548.325 425.625, 552.525 413.700, 553.361 411.500 C 554.765 407.809, 554.883 410.551, 554.895 447 L 554.907 486.500 566.953 486.781 L 579 487.062 579 423.531 L 579 360 564.577 360 L 550.154 360 538.846 394.398 L 527.538 428.796 515.939 394.648 L 504.341 360.500 489.670 360.223 L 475 359.947 475 423.473 M 620.499 361.223 C 620.247 361.925, 618.041 370.600, 615.597 380.500 C 613.154 390.400, 607.928 411.775, 603.985 428 C 600.041 444.225, 595.282 463.491, 593.408 470.813 C 591.533 478.136, 590 484.773, 590 485.563 C 590 486.734, 592.271 487, 602.272 487 L 614.545 487 616.911 475.250 C 618.213 468.788, 619.488 462.938, 619.746 462.250 C 620.093 461.323, 624.273 461, 635.928 461 L 651.642 461 654.462 474 L 657.282 487 669.754 487 C 682.227 487, 682.227 487, 681.763 484.250 C 681.507 482.738, 675.097 457.200, 667.517 427.500 C 659.938 397.800, 652.980 370.575, 652.056 367 L 650.375 360.500 635.666 360.223 C 624.439 360.012, 620.849 360.249, 620.499 361.223 M 692 423.385 L 692 487 704.500 487 L 717 487 717 462.945 L 717 438.890 721.617 439.195 L 726.234 439.500 733.110 457 C 736.892 466.625, 741.063 477.200, 742.379 480.500 L 744.771 486.500 756.886 486.781 C 766.220 486.997, 768.995 486.768, 768.980 485.781 C 768.969 485.076, 764.271 473.475, 758.539 460 C 748.119 435.500, 748.119 435.500, 750.309 434.056 C 751.514 433.262, 754.804 430.295, 757.620 427.462 C 760.968 424.093, 763.550 420.267, 765.082 416.405 C 767.026 411.504, 767.431 408.629, 767.462 399.500 C 767.483 393.380, 766.939 386.656, 766.236 384.343 C 765.541 382.056, 763.516 378.039, 761.736 375.415 C 759.956 372.791, 756.910 369.374, 754.967 367.822 C 753.023 366.271, 748.748 364.024, 745.467 362.831 C 740.142 360.894, 736.945 360.613, 715.750 360.216 L 692 359.771 692 423.385 M 785 423.500 L 785 487 797.500 487 L 810 487 810 423.500 L 810 360 797.500 360 L 785 360 785 423.500 M 847.241 377.224 C 844.945 386.726, 838.101 414.884, 832.033 439.797 C 825.965 464.710, 821 485.523, 821 486.047 C 821 486.597, 826.010 487, 832.860 487 L 844.719 487 847.500 474 L 850.281 461 865.906 461 L 881.531 461 883.843 471.639 C 885.114 477.490, 886.559 483.340, 887.053 484.639 C 887.929 486.944, 888.242 487, 900.270 487 L 912.590 487 902.425 446.750 C 896.834 424.613, 889.613 396.150, 886.380 383.500 L 880.500 360.500 865.958 360.224 L 851.417 359.949 847.241 377.224 M 717 400.128 L 717 419.257 725.043 418.791 C 730.923 418.451, 733.815 417.795, 735.793 416.354 C 737.282 415.270, 739.513 412.401, 740.750 409.980 C 742.063 407.411, 743 403.766, 743 401.231 C 743 398.841, 742.508 394.930, 741.906 392.539 C 741.304 390.149, 739.598 387.031, 738.115 385.611 C 736.410 383.976, 733.456 382.655, 730.073 382.014 C 727.133 381.456, 722.988 381, 720.864 381 L 717 381 717 400.128 M 634.764 392.500 C 634.446 393.600, 633.882 395.850, 633.510 397.500 C 633.139 399.150, 631.072 409.006, 628.917 419.402 C 626.763 429.798, 625 438.461, 625 438.652 C 625 438.843, 629.777 439, 635.617 439 C 645.722 439, 646.208 438.904, 645.713 437.011 C 645.427 435.916, 643.958 429.279, 642.448 422.261 C 640.938 415.242, 638.722 405.225, 637.522 400 C 636.129 393.929, 635.133 391.222, 634.764 392.500 M 860.424 415.301 L 855.371 438.500 865.316 438.786 C 870.785 438.944, 875.480 438.853, 875.749 438.584 C 876.018 438.315, 874.115 428.286, 871.520 416.298 C 868.926 404.309, 866.504 393.960, 866.140 393.301 C 865.775 392.641, 863.203 402.541, 860.424 415.301 M 187.357 395.954 C 186.178 396.450, 184.491 397.889, 183.607 399.151 C 182.723 400.413, 182.007 402.807, 182.015 404.473 C 182.024 406.138, 182.361 407.976, 182.765 408.558 C 183.169 409.140, 184.613 410.377, 185.973 411.308 C 187.332 412.239, 189.599 413, 191.008 413 C 192.982 413, 197.527 416.897, 210.764 429.940 L 227.956 446.880 228.228 509.292 L 228.500 571.705 232.167 575.764 C 234.185 577.997, 236.327 580.743, 236.929 581.867 C 237.530 582.991, 238.067 586.856, 238.121 590.455 C 238.175 594.055, 238.604 597, 239.074 597 C 239.545 597, 240.470 595.989, 241.131 594.754 C 241.793 593.519, 242.333 589.949, 242.333 586.822 C 242.333 583.486, 241.748 580.341, 240.917 579.214 C 240.137 578.158, 238.037 575.360, 236.250 572.997 L 233 568.700 232.997 506.600 L 232.994 444.500 216.145 427.027 C 199.296 409.553, 199.296 409.553, 199.757 405.460 C 200.128 402.174, 199.753 400.836, 197.859 398.682 C 196.562 397.206, 194.150 395.785, 192.500 395.524 C 190.850 395.264, 188.536 395.457, 187.357 395.954 M 167.500 435.946 C 166.400 436.251, 164.778 436.950, 163.896 437.500 C 163.014 438.050, 161.776 439.483, 161.146 440.684 C 160.516 441.886, 160 444.058, 160 445.511 C 160 447.099, 161.167 449.321, 162.923 451.077 C 165.198 453.352, 166.750 454, 169.923 454 C 172.165 454, 174 454.400, 174 454.889 C 174 455.379, 181.600 463.293, 190.888 472.477 L 207.777 489.176 208.210 506.838 C 208.448 516.552, 208.557 524.629, 208.452 524.786 C 208.347 524.944, 204.844 521.845, 200.668 517.900 C 193.076 510.726, 193.076 510.726, 193.667 506.415 C 194.196 502.554, 193.939 501.785, 191.206 499.052 C 188.927 496.773, 187.237 496, 184.531 496 C 182.019 496, 180.157 496.752, 178.455 498.455 C 176.755 500.154, 176 502.020, 176 504.520 C 176 506.506, 176.486 509.040, 177.080 510.150 C 177.675 511.261, 179.733 512.826, 181.654 513.629 C 183.575 514.431, 186.070 514.795, 187.198 514.437 C 188.327 514.079, 189.537 514.251, 189.888 514.819 C 190.239 515.387, 195.358 520.801, 201.263 526.849 L 212 537.847 212 555.493 C 212 573.139, 212 573.139, 214.250 572.820 C 216.475 572.503, 216.503 572.305, 216.773 554.656 C 217.025 538.216, 216.888 536.554, 215.023 533.538 C 213.152 530.510, 213 528.604, 213 508.190 L 213 486.116 194.942 468.333 C 180.030 453.647, 177.005 450.197, 177.574 448.525 C 177.954 447.411, 178.269 445.247, 178.274 443.715 C 178.279 442.184, 177.284 439.867, 176.063 438.567 C 174.841 437.267, 172.865 436.020, 171.671 435.797 C 170.477 435.574, 168.600 435.641, 167.500 435.946 M 550.148 506.852 C 547.205 507.902, 543.605 509.635, 542.148 510.703 C 540.692 511.770, 538.050 514.782, 536.277 517.395 C 534.504 520.008, 532.594 523.800, 532.033 525.823 C 531.471 527.845, 531.006 532.200, 531.001 535.500 C 530.995 538.800, 531.780 543.750, 532.745 546.500 C 533.864 549.689, 536.314 553.338, 539.508 556.574 C 543.697 560.817, 545.616 561.945, 551.235 563.466 C 555.876 564.722, 559.564 565.093, 563.166 564.667 C 566.033 564.327, 570.748 562.890, 573.644 561.474 C 576.539 560.057, 580.075 557.511, 581.502 555.815 C 582.928 554.120, 585.049 550.881, 586.213 548.616 C 587.619 545.884, 588.477 541.978, 588.764 537 C 589.112 530.954, 588.766 528.360, 586.977 523.619 C 585.757 520.385, 583.234 516.051, 581.371 513.989 C 579.508 511.926, 575.625 509.224, 572.742 507.984 C 569.859 506.744, 564.801 505.553, 561.500 505.336 C 557.295 505.060, 553.899 505.514, 550.148 506.852 M 475.867 528.250 C 475.793 539.938, 475.750 551.750, 475.770 554.500 C 475.790 557.250, 475.850 560.288, 475.903 561.250 C 475.990 562.822, 477.321 563, 488.962 563 C 499.544 563, 502.922 562.627, 507.355 560.968 C 511.037 559.591, 514.250 557.371, 517.334 554.074 C 520.576 550.608, 522.366 547.550, 523.564 543.428 C 524.697 539.530, 525.083 535.620, 524.747 531.436 C 524.412 527.259, 523.337 523.552, 521.463 520.109 C 519.931 517.294, 517.271 513.919, 515.553 512.608 C 513.834 511.297, 510.291 509.499, 507.679 508.612 C 504.238 507.444, 499.220 507, 489.465 507 L 476 507 475.867 528.250 M 552.886 519.942 C 550.733 521.114, 548.554 523.421, 547.497 525.648 C 546.386 527.989, 545.753 531.551, 545.804 535.173 C 545.849 538.355, 546.635 542.536, 547.550 544.463 C 548.464 546.391, 550.681 548.876, 552.474 549.984 C 554.506 551.240, 557.469 552, 560.333 552 C 564.043 552, 565.608 551.405, 568.441 548.918 C 570.410 547.189, 572.399 544.225, 572.970 542.168 C 573.530 540.150, 573.981 536.700, 573.972 534.500 C 573.963 532.300, 573.104 528.623, 572.062 526.328 C 571.020 524.033, 568.998 521.390, 567.569 520.453 C 566.140 519.517, 563.065 518.577, 560.736 518.364 C 557.825 518.097, 555.370 518.591, 552.886 519.942 M 490 535.101 L 490 550.849 495.250 550.321 C 498.137 550.031, 501.850 549.037, 503.500 548.113 C 505.150 547.188, 507.287 544.872, 508.248 542.966 C 509.210 541.060, 509.998 537.348, 509.998 534.718 C 509.999 532.088, 509.360 528.405, 508.579 526.534 C 507.764 524.584, 505.806 522.434, 503.989 521.494 C 502.246 520.593, 498.386 519.743, 495.410 519.605 L 490 519.353 490 535.101" stroke="none" fill="#fbcc34" fill-rule="evenodd"/></svg>